<svg width="31" height="30" viewBox="0 0 31 30" fill="none" xmlns="http://www.w3.org/2000/svg">
<path fill-rule="evenodd" clip-rule="evenodd" d="M15.9851 2C8.81255 2 2.99805 7.8145 2.99805 14.9871C2.99805 22.1596 8.81255 27.9741 15.9851 27.9741C23.1576 27.9741 28.9722 22.1596 28.9722 14.9871C28.9722 7.8145 23.1576 2 15.9851 2ZM0.998047 14.9871C0.998047 6.70993 7.70798 0 15.9851 0C24.2622 0 30.9722 6.70993 30.9722 14.9871C30.9722 23.2642 24.2622 29.9741 15.9851 29.9741C7.70798 29.9741 0.998047 23.2642 0.998047 14.9871Z" fill="#00437D"/>
<path fill-rule="evenodd" clip-rule="evenodd" d="M30.7164 4.7618L16.0628 19.7939L10.2822 13.8529L11.7157 12.4582L16.0641 16.9273L29.2843 3.36572L30.7164 4.7618Z" fill="#00437D"/>
</svg>
